<?xml version="1.0" encoding="utf-8"?>
<!-- Generator: Adobe Illustrator 26.3.1, SVG Export Plug-In . SVG Version: 6.00 Build 0)  -->
<svg version="1.1" id="レイヤー_1" xmlns="http://www.w3.org/2000/svg" xmlns:xlink="http://www.w3.org/1999/xlink" x="0px"
	 y="0px" viewBox="0 0 750 460" style="enable-background:new 0 0 750 460;" xml:space="preserve">
<style type="text/css">
	.st0{fill:#2881C0;}
</style>
<path class="st0" d="M453.5,281.8c-11.3,8.3-23.6,14.4-35.9,20.9C350,338.1,281.3,370.9,210,398.2c-44.4,17-89.3,32.9-136.5,40.7
	c-11.7,1.9-23.4,2.2-35.1,1.1c-15.8-1.5-21.6-11.5-15.6-26.1c4-9.7,10.7-17.5,17.6-25.1c19.2-21.1,41.1-39.1,64-56
	c1.4,1.8,0.8,3.1,0.2,4.4c-6.4,15.4-2.7,23.3,13.6,27.6c17,4.5,34.2,3.2,51.4,1.4c41.4-4.2,81.4-14.7,121.2-26.4
	c51.7-15.1,101.9-34.2,151.4-55.4C446,282.9,449.3,281.5,453.5,281.8L453.5,281.8z"/>
<path class="st0" d="M320.9,174.5c20.6-10.7,39.2-20.8,58.2-30.3c70.4-35.4,142.1-67.7,216.7-93.4c32.2-11.1,64.8-20.9,98.7-25.3
	c10.5-1.4,21.1-2.1,31.6,0.9c13.3,3.8,17.1,11,12.2,23.9c-4.5,12-13.1,21.1-21.6,30.2c-17.5,18.8-37.5,34.8-58.2,50.6
	c-1.4-3.2,0.8-5,1.7-6.9c6.1-13.3,2.6-21.5-11.7-26.1c-16.1-5.1-32.7-4.3-49.1-2.6c-64.5,6.6-125.9,26.3-187,46.9
	c-27.5,9.3-54.2,20.9-81.1,31.7C328.8,175.1,326.1,176.6,320.9,174.5z"/>
<g>
	<path class="st0" d="M38.6,233.5l12.8-31.3c0.4-0.9,0.7-1.4,0.8-1.5c0.2-0.1,0.5-0.2,1.2-0.2h2.1h6.9h4.9h2c1.6,0,2.4,0.6,2.4,1.7
		c0,1-1.1,1.6-3.4,1.8c-1.4,0-2.3,0.4-2.8,1.2c-0.5,0.8-0.7,2.3-0.7,4.5l0.9,33.6c0,2.9,0.3,4.7,0.9,5.4c0.6,0.7,1.8,1.2,3.6,1.4
		c1.8,0.2,2.7,0.8,2.7,1.8c0,1.2-1,1.8-3.1,1.8h-1.7l-10.9-0.6c-1,0-2.4,0.1-4.3,0.3c-1.9,0.2-3.1,0.3-3.7,0.3h-2.1
		c-1.6,0-2.4-0.6-2.4-1.7c0-0.7,0.2-1.2,0.7-1.4c0.5-0.3,1.5-0.5,3-0.7c1.5-0.2,2.5-0.6,3-1.3c0.5-0.7,0.7-1.9,0.7-3.7l-0.5-32.7
		l-13,32l-1.6,4.4c-0.6,1.9-1.1,3.1-1.5,3.6c-0.4,0.5-1,0.7-1.9,0.7c-1.1,0-2-0.6-2.5-1.8l-15.8-38.4L14.5,236l-0.2,6.2
		c0,3.1,0.3,5.1,0.9,6.1c0.6,1,1.8,1.5,3.6,1.5c1.6,0,2.7,0.1,3.2,0.4c0.5,0.3,0.8,0.8,0.8,1.6c0,1.2-0.9,1.8-2.6,1.8l-1.9-0.3
		c-0.8,0-1.9,0-3.2-0.1c-1.3-0.1-2.2-0.1-2.6-0.1l-4.9,0.4l-2.3,0.2c-1.4,0-2.1-0.5-2.1-1.6c0-0.6,0.2-1,0.6-1.3
		c0.4-0.3,1.3-0.5,2.8-0.8c1.4-0.3,2.4-0.7,2.8-1.4c0.4-0.7,0.7-2,0.7-4.1l1.7-33.4v-1.3l0.1-1.3v-1.3c0-1.3-0.2-2.2-0.7-2.6
		c-0.4-0.4-1.4-0.7-2.9-0.7c-2.4,0-3.6-0.6-3.6-1.9c0-1.2,1.1-1.8,3.2-1.8l1.5,0.2h6.1c1.2,0,2.5,0,4,0s2.5,0,3,0h0.8
		c0.9,0,1.5,0.5,1.9,1.4L38.6,233.5z"/>
	<path class="st0" d="M113.9,226.9v-4.5c0-4.5-1.3-6.7-3.8-6.7c-2.4,0-4.4,1.8-5.9,5.4c-0.6,1.4-1.1,2.3-1.6,2.9
		c-0.5,0.6-1.1,1.1-2,1.5c-2.6,1.2-5,1.8-6.9,1.8c-1.7,0-2.6-0.7-2.6-2.1c0-1,0.5-2.3,1.6-3.8c1-1.5,2.3-2.9,3.7-4
		c4.2-3.2,9.4-4.8,15.5-4.8c4.7,0,8.2,0.7,10.5,2.1c2.3,1.4,3.4,3.6,3.4,6.6v20.8c0,2.9,0.6,4.3,1.9,4.3c0.5,0,0.7,0,0.9-0.1
		c0.2-0.1,0.9-0.5,2.3-1.4c0.1-0.1,0.4-0.2,0.9-0.3c0.8,0,1.2,0.4,1.2,1.3c0,0.9-0.7,2-2.2,3.2c-3.1,2.7-6.1,4-9.2,4
		c-2.2,0-3.9-0.7-5.1-2.2l-0.7-1.1l-1.2-2.4c-0.1-0.2-0.2-0.4-0.4-0.5c-0.1,0-0.2,0-0.2-0.1l-0.5,0.2c-2.4,2-3.8,3.2-4.4,3.7
		c-0.6,0.4-1.4,0.9-2.6,1.5c-2.4,1-4.6,1.6-6.8,1.6c-2.5,0-4.6-0.8-6.1-2.4c-1.6-1.6-2.4-3.6-2.4-6.1c0-4.1,2.1-7.3,6.3-9.6l7.6-3.9
		l2-0.9l2.1-1l2-0.9c1.4-0.7,2.3-1.1,2.5-1.3C113.8,227.6,113.9,227.3,113.9,226.9z M113.9,238.2v-5.4c0-0.7-0.2-1.1-0.6-1.1
		c-0.4,0.1-1.3,0.5-2.8,1.3s-2.8,1.7-4.2,2.6c-2.5,1.7-3.7,3.8-3.7,6.2c0,1.4,0.4,2.6,1.3,3.6c0.9,1,1.9,1.5,3.1,1.5
		c1,0,2.1-0.3,3.2-0.8c1.1-0.5,1.9-1.2,2.6-2.1C113.5,243,113.9,241,113.9,238.2z"/>
	<path class="st0" d="M148.2,248l0.2-5.8c0-1.3,0.6-2,1.7-2c0.8,0,1.6,0.7,2.3,2c1.5,2.7,2.5,4.5,2.9,5.2c0.5,0.7,1.1,1.4,1.9,1.9
		c1.8,1.2,3.8,1.8,6.3,1.8c2.4,0,4.4-0.5,5.9-1.6c1.5-1.1,2.2-2.4,2.2-4.2c0-2.6-2.2-4.7-6.7-6.2c-2.7-0.8-4.9-1.6-6.5-2.2
		c-1.6-0.7-3.1-1.4-4.4-2.3c-1.7-1-3.1-2.3-4.1-3.9c-1-1.6-1.5-3.2-1.5-4.9c0-3.7,1.6-6.8,4.8-9.3c3.2-2.5,7.1-3.8,11.8-3.8
		c1.3,0,3,0.1,5.1,0.4c2.1,0.3,4,0.6,5.9,1c1.3,0.3,2.1,0.6,2.4,0.9c0.3,0.4,0.5,1.2,0.5,2.5l-0.2,3.6c-0.2,1.6-0.7,2.4-1.6,2.4
		c-0.8,0-1.8-0.7-2.9-2.1c-2-2.6-3.4-4.3-4.3-4.9c-0.9-0.6-2.3-0.9-4.3-0.9c-2,0-3.6,0.4-4.9,1.3c-1.2,0.8-1.9,2-1.9,3.4
		c0,1.7,1.2,3.1,3.6,4.1l1.5,0.6l4.3,1.4l2.2,0.6c7.2,2.3,10.8,6.3,10.8,12c0,4.5-1.8,8.1-5.3,10.9c-3.6,2.8-8.2,4.2-13.8,4.2
		c-2.6,0-5-0.2-7.1-0.7c-2.1-0.5-3.8-1.2-5.1-2.1C148.7,250.4,148.2,249.3,148.2,248z"/>
	<path class="st0" d="M215.4,196.2v20.4c0,1,0,1.6,0.1,1.8c0.1,0.2,0.2,0.3,0.5,0.3l0.6-0.2c2.9-1.9,5.3-3.2,7-3.8s3.6-1,5.5-1
		c2.2,0,4.3,0.4,6.3,1.3c2,0.8,3.6,2,4.9,3.5c1.7,2,2.5,5.2,2.5,9.7v14.8c0,3.1,0.2,4.9,0.6,5.5c0.4,0.6,1.8,1.2,4.2,1.7
		c1.3,0.2,1.9,0.8,1.9,1.8c0,1.1-0.9,1.6-2.6,1.6h-1.5h-1.9h-0.9l-5.4-0.3l-7,0.3h-2.7h-1.1c-1.4,0-2.1-0.6-2.1-1.7
		c0-0.8,0.6-1.4,1.7-1.7c2.1-0.6,3.3-1.2,3.7-1.9c0.4-0.7,0.6-2.4,0.6-5.3v-14c0-3.4-0.5-5.9-1.5-7.3c-1-1.5-2.8-2.2-5.3-2.2
		c-1.1,0-2.4,0.3-3.8,0.8c-1.4,0.5-2.4,1.2-3.2,1.9c-0.8,0.8-1.2,1.9-1.2,3.4v17.4c0,2.9,0.2,4.7,0.5,5.3c0.4,0.7,1.6,1.3,3.7,1.9
		c1.1,0.3,1.7,0.9,1.7,1.7c0,1.1-0.7,1.7-2.1,1.7h-1.1h-2.7l-6.4-0.3l-8.8,0.3h-1.5c-1.7,0-2.6-0.5-2.6-1.6c0-1,0.6-1.6,1.9-1.8
		c2.4-0.5,3.8-1,4.2-1.7c0.4-0.6,0.6-2.5,0.6-5.5v-35.3c0-2.3-0.2-3.9-0.6-4.6c-0.4-0.8-1.3-1.2-2.7-1.3c-1.4-0.1-2.3-0.3-2.7-0.6
		c-0.4-0.2-0.6-0.7-0.6-1.3c0-0.5,0.2-0.8,0.6-1c0.4-0.2,1.4-0.4,3.2-0.7c1.7-0.3,3.7-0.7,6-1.4c2.3-0.7,4.2-1.4,5.6-2.2
		c0.6-0.3,0.9-0.5,1-0.6c0.4-0.2,0.8-0.2,1.2-0.2C214.9,193.7,215.4,194.5,215.4,196.2z"/>
	<path class="st0" d="M283.6,215.6v27.3c0,3.1,0.2,4.9,0.6,5.5c0.4,0.6,1.8,1.2,4.2,1.7c1.3,0.2,1.9,0.8,1.9,1.8
		c0,1.1-0.9,1.6-2.6,1.6h-1.5h-0.9h-0.9h-0.9l-6.6-0.3l-5.9,0.3h-0.9h-0.9h-0.9h-1.5c-1.7,0-2.6-0.5-2.6-1.6c0-1,0.6-1.6,1.9-1.8
		c2.4-0.5,3.8-1,4.2-1.7c0.4-0.6,0.6-2.5,0.6-5.5v-14.6c0-1.7-0.2-2.8-0.6-3.3s-1.6-0.8-3.6-1c-1.1-0.2-1.6-0.7-1.6-1.5
		c0-0.6,0.2-1,0.6-1.2c0.4-0.2,1.6-0.7,3.7-1.3c1.4-0.4,3.1-1.2,5.2-2.4c2.1-1.2,3.7-2.2,4.8-3.2c0.4-0.4,0.9-0.7,1.3-1.1
		c0.5-0.3,0.9-0.5,1.2-0.5C283.1,212.8,283.6,213.8,283.6,215.6z M277.1,196.8c2.2,0,4,0.6,5.4,1.9c1.4,1.2,2.1,2.9,2.1,4.9
		c0,1.9-0.7,3.5-2.1,4.7c-1.4,1.3-3.2,1.9-5.3,1.9c-2,0-3.7-0.6-5.1-1.9c-1.4-1.3-2.1-2.8-2.1-4.7c0-1.9,0.7-3.6,2-4.9
		C273.2,197.5,275,196.8,277.1,196.8z"/>
	<path class="st0" d="M326.1,214v3.9c0,0.9,0.2,1.4,0.5,1.4l0.9-0.4c4.2-3.5,8.6-5.3,13.2-5.3c4.9,0,8.7,1.4,11.4,4.3
		c1.7,1.7,2.5,4.6,2.5,8.6v16.3c0,3.1,0.2,4.9,0.6,5.5c0.4,0.6,1.8,1.2,4.2,1.7c1.3,0.2,1.9,0.8,1.9,1.8c0,1.1-0.8,1.6-2.6,1.6h-1.5
		h-0.9h-0.9h-0.9l-5.3-0.3l-9.9,0.3h-1c-1.4,0-2.1-0.6-2.1-1.7c0-0.8,0.6-1.4,1.7-1.7c2-0.6,3.2-1.2,3.6-1.9
		c0.4-0.7,0.6-2.4,0.6-5.3v-14.6c0-6.2-2.3-9.3-6.8-9.3c-2.3,0-4.4,0.8-6.3,2.4c-0.7,0.6-1.2,1.3-1.5,2.1c-0.3,0.8-0.4,1.9-0.4,3.4
		v15.9c0,2.9,0.2,4.7,0.5,5.3c0.4,0.7,1.6,1.3,3.6,1.9c1.1,0.3,1.7,0.9,1.7,1.7c0,1.1-0.7,1.7-2.1,1.7h-1H327l-6.7-0.3l-5.8,0.3
		h-0.9h-0.9h-0.9h-1.5c-1.7,0-2.6-0.5-2.6-1.6c0-1,0.6-1.6,1.9-1.8c2.4-0.5,3.8-1,4.2-1.7c0.4-0.6,0.6-2.5,0.6-5.5v-14.6
		c0-2.1-0.2-3.4-0.7-3.9c-0.5-0.5-1.5-0.9-3-1.1c-1.5-0.2-2.3-0.6-2.3-1.3c0-0.6,0.2-1,0.5-1.2c0.4-0.2,1.5-0.6,3.4-1.1
		c1.9-0.5,3.8-1.3,5.8-2.4c1.9-1.1,3.4-2.1,4.4-3.2c1-1.1,1.8-1.6,2.2-1.6C325.7,212.6,326.1,213.1,326.1,214z"/>
	<path class="st0" d="M445.9,204.2v7.9c0,1.4-0.6,2.1-1.7,2.1c-1,0-1.7-0.8-2.2-2.4c-2-6.1-5.2-9.2-9.5-9.2c-2.6,0-4.8,0.7-6.6,2.2
		c-1.8,1.5-2.7,3.3-2.7,5.4c0,2.7,1.6,4.8,4.9,6.3l1.8,0.7l2.1,0.7l2.1,0.6l2,0.7c9.3,3.1,13.9,8.4,13.9,16c0,5.5-2.1,10.1-6.2,13.7
		c-4.1,3.6-9.4,5.4-15.7,5.4c-2.9,0-6-0.4-9.2-1.2c-3.2-0.8-5.3-1.7-6.3-2.7c-0.3-0.2-0.5-0.5-0.6-0.9c-0.1-0.4-0.2-1-0.2-1.7
		l-0.1-3.2l-0.1-3c0-1.9,0.1-3.2,0.3-3.8c0.2-0.6,0.7-0.9,1.5-0.9c0.9,0,1.5,0.6,2,1.7l0.3,0.6l0.3,1.3l0.4,1.2l0.3,1.2
		c1.5,5.2,5.3,7.8,11.3,7.8c3.3,0,6-0.8,8.1-2.5c2.1-1.7,3.2-3.8,3.2-6.4c0-3.2-1.8-5.8-5.3-7.8l-7.1-3.2c-5.4-2.3-9.1-4.5-11.3-6.7
		c-2.2-2.2-3.3-5-3.3-8.2c0-4.7,2.1-8.7,6.3-12c4.2-3.3,9.3-5,15.3-5c1.8,0,3.8,0.2,6,0.7c2.2,0.5,3.8,1,4.7,1.5
		C445.5,201.9,445.9,202.9,445.9,204.2z"/>
	<path class="st0" d="M485.2,196.2v20.4c0,1,0,1.6,0.1,1.8c0.1,0.2,0.2,0.3,0.5,0.3l0.6-0.2c2.9-1.9,5.3-3.2,7-3.8
		c1.7-0.7,3.6-1,5.5-1c2.2,0,4.3,0.4,6.3,1.3c2,0.8,3.6,2,4.9,3.5c1.6,2,2.5,5.2,2.5,9.7v14.8c0,3.1,0.2,4.9,0.6,5.5
		c0.4,0.6,1.8,1.2,4.2,1.7c1.3,0.2,1.9,0.8,1.9,1.8c0,1.1-0.9,1.6-2.6,1.6h-1.5h-1.9h-0.9l-5.4-0.3l-7,0.3h-2.7h-1.1
		c-1.4,0-2.1-0.6-2.1-1.7c0-0.8,0.6-1.4,1.7-1.7c2.1-0.6,3.3-1.2,3.7-1.9c0.4-0.7,0.6-2.4,0.6-5.3v-14c0-3.4-0.5-5.9-1.5-7.3
		c-1-1.5-2.8-2.2-5.3-2.2c-1.1,0-2.4,0.3-3.8,0.8c-1.4,0.5-2.4,1.2-3.2,1.9s-1.2,1.9-1.2,3.4v17.4c0,2.9,0.2,4.7,0.5,5.3
		c0.4,0.7,1.6,1.3,3.7,1.9c1.1,0.3,1.7,0.9,1.7,1.7c0,1.1-0.7,1.7-2.1,1.7H488h-2.7l-6.4-0.3l-8.8,0.3h-1.5c-1.7,0-2.6-0.5-2.6-1.6
		c0-1,0.6-1.6,1.9-1.8c2.4-0.5,3.8-1,4.2-1.7c0.4-0.6,0.6-2.5,0.6-5.5v-35.3c0-2.3-0.2-3.9-0.6-4.6c-0.4-0.8-1.3-1.2-2.7-1.3
		c-1.4-0.1-2.3-0.3-2.7-0.6c-0.4-0.2-0.6-0.7-0.6-1.3c0-0.5,0.2-0.8,0.6-1c0.4-0.2,1.4-0.4,3.2-0.7c1.7-0.3,3.7-0.7,6-1.4
		c2.3-0.7,4.2-1.4,5.6-2.2c0.6-0.3,0.9-0.5,1-0.6c0.4-0.2,0.8-0.2,1.2-0.2C484.7,193.7,485.2,194.5,485.2,196.2z"/>
	<path class="st0" d="M558.4,212.6c6.4,0,11.8,2,16.1,5.9c4.3,3.9,6.5,8.8,6.5,14.7c0,5.7-2.3,10.6-7,14.7
		c-4.6,4.1-10.3,6.1-16.9,6.1c-6.3,0-11.7-1.9-16.1-5.8c-4.4-3.9-6.5-8.6-6.5-14.3c0-6,2.3-11.1,6.8-15.2
		C545.9,214.6,551.6,212.6,558.4,212.6z M557.1,215.5c-2.7,0-5,1.4-6.7,4.3s-2.6,6.6-2.6,11.2c0,5.5,1.1,10.2,3.2,14.1
		c2.1,3.9,4.7,5.8,7.7,5.8c2.7,0,4.8-1.5,6.5-4.4c1.7-2.9,2.5-6.9,2.5-11.8c0-5.5-1-10.1-3-13.8
		C562.6,217.4,560.1,215.5,557.1,215.5z"/>
	<path class="st0" d="M627.7,227.1l13.7,20.1c0.9,1.4,1.5,2.2,1.8,2.4c0.3,0.2,0.9,0.5,1.9,0.8c1,0.3,1.5,0.8,1.5,1.6
		c0,1.1-0.7,1.6-2.1,1.6h-0.9l-7.9-0.3l-4.9-0.1l-1.9,0.1l-1.3,0.1c-1.2,0-1.8-0.5-1.8-1.4c0-0.2,0-0.4,0.1-0.6
		c0-0.2,0.3-0.6,0.6-1.3l0.2-0.9c0-0.7-0.5-1.7-1.5-3.1l-7.8-11.5c-0.6-0.9-1.1-1.4-1.3-1.4s-0.4,0.1-0.5,0.4
		c-0.1,0.3-0.1,0.7-0.1,1.2v8.3c0,2.9,0.2,4.7,0.5,5.4c0.4,0.7,1.6,1.3,3.6,1.9c1.1,0.3,1.7,0.9,1.7,1.7c0,1.1-0.7,1.7-2,1.7h-1.1
		l-2.8-0.1l-6-0.3l-9.2,0.4h-1.5c-1.7,0-2.6-0.5-2.6-1.6c0-1,0.6-1.6,1.9-1.8c2.4-0.5,3.8-1,4.2-1.7c0.4-0.6,0.6-2.5,0.6-5.5v-36.3
		c0-2.2-0.2-3.5-0.7-4c-0.4-0.5-1.8-1-4.1-1.4c-0.8-0.2-1.2-0.6-1.2-1.3c0-0.4,0.3-0.8,0.9-1.1c0.5-0.3,1.4-0.6,2.8-0.8
		c2.8-0.6,4.9-1.1,6.3-1.5c1.4-0.4,2.7-1,4-1.6c1.3-0.7,2.1-1,2.3-1.1c0.3-0.1,0.5-0.2,0.9-0.2c0.8,0,1.2,0.8,1.2,2.5v32.1
		c0,0.8,0.3,1.1,0.8,1c0.3-0.1,1-0.4,2.1-1.2c1.1-0.7,2.7-2,4.9-3.8c1.6-1.2,2.8-2.2,3.6-3c0.8-0.8,1.2-1.4,1.2-1.8
		c0-0.8-0.8-1.3-2.5-1.4c-2,0-2.9-0.6-2.9-1.7c0-1,1-1.5,3.1-1.5h1.2h7h5.8l1.1-0.2c1.7,0,2.6,0.5,2.6,1.6c0,0.5-0.2,0.9-0.6,1.1
		c-0.4,0.3-1.1,0.5-2.1,0.7c-2.3,0.5-4.2,1.1-5.7,1.9c-1.5,0.7-3.7,2.1-6.6,4.2c-0.9,0.7-1.4,1.3-1.4,1.7
		C627.3,226.2,627.5,226.6,627.7,227.1z"/>
	<path class="st0" d="M686.4,226.9v-4.5c0-4.5-1.3-6.7-3.8-6.7c-2.4,0-4.4,1.8-5.9,5.4c-0.6,1.4-1.1,2.3-1.6,2.9
		c-0.5,0.6-1.1,1.1-2,1.5c-2.6,1.2-5,1.8-6.9,1.8c-1.7,0-2.6-0.7-2.6-2.1c0-1,0.5-2.3,1.6-3.8c1-1.5,2.3-2.9,3.7-4
		c4.2-3.2,9.4-4.8,15.5-4.8c4.7,0,8.2,0.7,10.5,2.1c2.3,1.4,3.4,3.6,3.4,6.6v20.8c0,2.9,0.6,4.3,1.9,4.3c0.5,0,0.7,0,0.8-0.1
		c0.2-0.1,0.9-0.5,2.3-1.4c0.1-0.1,0.4-0.2,0.9-0.3c0.8,0,1.2,0.4,1.2,1.3c0,0.9-0.7,2-2.2,3.2c-3.1,2.7-6.1,4-9.2,4
		c-2.2,0-3.9-0.7-5.1-2.2l-0.7-1.1l-1.2-2.4c-0.1-0.2-0.2-0.4-0.4-0.5c-0.1,0-0.2,0-0.2-0.1l-0.5,0.2c-2.4,2-3.8,3.2-4.4,3.7
		c-0.6,0.4-1.4,0.9-2.6,1.5c-2.4,1-4.6,1.6-6.8,1.6c-2.5,0-4.6-0.8-6.1-2.4c-1.6-1.6-2.4-3.6-2.4-6.1c0-4.1,2.1-7.3,6.3-9.6l7.6-3.9
		l2-0.9l2.1-1l2-0.9c1.4-0.7,2.3-1.1,2.5-1.3C686.3,227.6,686.4,227.3,686.4,226.9z M686.4,238.2v-5.4c0-0.7-0.2-1.1-0.6-1.1
		c-0.4,0.1-1.3,0.5-2.8,1.3s-2.8,1.7-4.2,2.6c-2.5,1.7-3.7,3.8-3.7,6.2c0,1.4,0.4,2.6,1.3,3.6c0.9,1,1.9,1.5,3.1,1.5
		c1,0,2.1-0.3,3.2-0.8c1.1-0.5,1.9-1.2,2.6-2.1C686,243,686.4,241,686.4,238.2z"/>
	<path class="st0" d="M739,215.6v27.3c0,3.1,0.2,4.9,0.6,5.5c0.4,0.6,1.8,1.2,4.2,1.7c1.3,0.2,1.9,0.8,1.9,1.8
		c0,1.1-0.9,1.6-2.6,1.6h-1.5h-0.9h-0.9H739l-6.6-0.3l-5.9,0.3h-0.9h-0.9h-0.9h-1.5c-1.7,0-2.6-0.5-2.6-1.6c0-1,0.6-1.6,1.9-1.8
		c2.4-0.5,3.8-1,4.2-1.7c0.4-0.6,0.6-2.5,0.6-5.5v-14.6c0-1.7-0.2-2.8-0.6-3.3c-0.4-0.4-1.6-0.8-3.6-1c-1.1-0.2-1.6-0.7-1.6-1.5
		c0-0.6,0.2-1,0.6-1.2c0.4-0.2,1.6-0.7,3.7-1.3c1.4-0.4,3.1-1.2,5.2-2.4c2.1-1.2,3.7-2.2,4.8-3.2c0.4-0.4,0.9-0.7,1.3-1.1
		c0.5-0.3,0.9-0.5,1.2-0.5C738.5,212.8,739,213.8,739,215.6z M732.5,196.8c2.2,0,4,0.6,5.4,1.9c1.4,1.2,2.1,2.9,2.1,4.9
		c0,1.9-0.7,3.5-2.1,4.7c-1.4,1.3-3.2,1.9-5.3,1.9c-2,0-3.7-0.6-5.1-1.9c-1.4-1.3-2.1-2.8-2.1-4.7c0-1.9,0.7-3.6,2-4.9
		C728.7,197.5,730.4,196.8,732.5,196.8z"/>
</g>
</svg>
